# xmcd CD database file
#
# Track frame offsets:
#	210
#	31318
#	70821
#	104571
#	132427
#	152975
#	200753
#	224619
#	272975
#
# Disc length: 4068 seconds
#
# Revision: 0
# Processed by: cddbd v1.5.2PL0 Copyright (c) Steve Scherf et al.
# Submitted via: CDex 1.70beta2
#
DISCID=930fe209
DTITLE=Davis, Eddie 4tet - Eddie "Lockjaw" Davis Quartet
DYEAR=2000
DGENRE=Jazz
TTITLE0=just friends
TTITLE1=out of nowhere
TTITLE2=take the 'a' train
TTITLE3=s' wonderful
TTITLE4=if i had you
TTITLE5=light and lovely
TTITLE6=i can't get started
TTITLE7=shiny stockings
TTITLE8=don't get around much anymore
EXTD=YEAR: 2000
EXTT0=
EXTT1=
EXTT2=
EXTT3=
EXTT4=
EXTT5=
EXTT6=
EXTT7=
EXTT8=
PLAYORDER=
